<svg aria-hidden="true" style="position: absolute; width: 0; height: 0; overflow: hidden;" version="1.1" xmlns="http://www.w3.org/2000/svg" xmlns:xlink="http://www.w3.org/1999/xlink">
<defs>
<symbol id="icon-arrow-up8" viewBox="0 0 16 16">
<title>arrow-up8</title>
<path d="M13.707 6.293l-5-5c-0.39-0.391-1.024-0.391-1.414 0l-5 5c-0.391 0.391-0.391 1.024 0 1.414s1.024 0.391 1.414 0l3.293-3.293v9.586c0 0.552 0.448 1 1 1s1-0.448 1-1v-9.586l3.293 3.293c0.195 0.195 0.451 0.293 0.707 0.293s0.512-0.098 0.707-0.293c0.391-0.391 0.391-1.024 0-1.414z"></path>
</symbol>
<symbol id="icon-arrow-down8" viewBox="0 0 16 16">
<title>arrow-down8</title>
<path d="M13.707 9.707l-5 5c-0.39 0.391-1.024 0.391-1.414 0l-5-5c-0.391-0.391-0.391-1.024 0-1.414s1.024-0.391 1.414 0l3.293 3.293v-9.586c0-0.552 0.448-1 1-1s1 0.448 1 1v9.586l3.293-3.293c0.195-0.195 0.451-0.293 0.707-0.293s0.512 0.098 0.707 0.293c0.391 0.391 0.391 1.024 0 1.414z"></path>
</symbol>
<symbol id="icon-facebook" viewBox="0 0 16 16">
<title>facebook</title>
<path d="M9.5 3h2.5v-3h-2.5c-1.93 0-3.5 1.57-3.5 3.5v1.5h-2v3h2v8h3v-8h2.5l0.5-3h-3v-1.5c0-0.271 0.229-0.5 0.5-0.5z"></path>
</symbol>
<symbol id="icon-instagram" viewBox="0 0 16 16">
<title>instagram</title>
<path d="M14.5 0h-13c-0.825 0-1.5 0.675-1.5 1.5v13c0 0.825 0.675 1.5 1.5 1.5h13c0.825 0 1.5-0.675 1.5-1.5v-13c0-0.825-0.675-1.5-1.5-1.5zM11 2.5c0-0.275 0.225-0.5 0.5-0.5h2c0.275 0 0.5 0.225 0.5 0.5v2c0 0.275-0.225 0.5-0.5 0.5h-2c-0.275 0-0.5-0.225-0.5-0.5v-2zM8 5c1.656 0 3 1.344 3 3s-1.344 3-3 3c-1.656 0-3-1.344-3-3s1.344-3 3-3zM14 13.5v0c0 0.275-0.225 0.5-0.5 0.5h-11c-0.275 0-0.5-0.225-0.5-0.5v0-6.5h1.1c-0.066 0.322-0.1 0.656-0.1 1 0 2.762 2.237 5 5 5s5-2.238 5-5c0-0.344-0.034-0.678-0.1-1h1.1v6.5z"></path>
</symbol>
<symbol id="icon-twitter" viewBox="0 0 16 16">
<title>twitter</title>
<path d="M16 3.538c-0.588 0.263-1.222 0.438-1.884 0.516 0.678-0.406 1.197-1.050 1.444-1.816-0.634 0.375-1.338 0.65-2.084 0.797-0.6-0.638-1.453-1.034-2.397-1.034-1.813 0-3.281 1.469-3.281 3.281 0 0.256 0.028 0.506 0.084 0.747-2.728-0.138-5.147-1.444-6.766-3.431-0.281 0.484-0.444 1.050-0.444 1.65 0 1.138 0.578 2.144 1.459 2.731-0.538-0.016-1.044-0.166-1.488-0.409 0 0.013 0 0.028 0 0.041 0 1.591 1.131 2.919 2.634 3.219-0.275 0.075-0.566 0.116-0.866 0.116-0.212 0-0.416-0.022-0.619-0.059 0.419 1.303 1.631 2.253 3.066 2.281-1.125 0.881-2.538 1.406-4.078 1.406-0.266 0-0.525-0.016-0.784-0.047 1.456 0.934 3.181 1.475 5.034 1.475 6.037 0 9.341-5.003 9.341-9.341 0-0.144-0.003-0.284-0.009-0.425 0.641-0.459 1.197-1.038 1.637-1.697z"></path>
</symbol>
<symbol id="icon-logo" viewBox="0 0 32 32">
<title>logo</title>
<path d="M27.082 8.706c0 0.148-0.006 0.256-0.018 0.33-0.016 0.094-0.050 0.18-0.108 0.26-0.072 0.112-0.17 0.2-0.29 0.264-0.122 0.066-0.252 0.098-0.388 0.098-0.144 0-0.27-0.036-0.376-0.104-0.094-0.062-0.194-0.166-0.318-0.332l-1.578-2.042v1.612c0 0.242-0.068 0.444-0.202 0.598-0.14 0.16-0.334 0.246-0.564 0.246s-0.426-0.086-0.568-0.248c-0.136-0.156-0.206-0.356-0.206-0.594v-3.68c0-0.124 0.008-0.218 0.022-0.29 0.018-0.084 0.056-0.164 0.11-0.242 0.146-0.218 0.358-0.334 0.612-0.334 0.14 0 0.264 0.032 0.372 0.094 0.1 0.058 0.204 0.16 0.32 0.31l1.64 2.082v-1.654c0.006-0.242 0.076-0.44 0.21-0.59 0.14-0.158 0.33-0.24 0.556-0.24s0.424 0.084 0.566 0.244c0.138 0.154 0.206 0.354 0.206 0.592v3.62zM26.884 17.046c-0.13 0.45-0.322 0.878-0.57 1.272-0.246 0.392-0.544 0.75-0.884 1.066-0.344 0.32-0.736 0.588-1.164 0.796-0.376 0.182-0.756 0.31-1.134 0.38-0.368 0.068-0.834 0.102-1.426 0.102h-0.816v1.354c-0.016 0.612-0.194 1.12-0.532 1.508-0.354 0.408-0.85 0.626-1.436 0.626-0.588 0-1.086-0.222-1.44-0.64-0.338-0.398-0.51-0.906-0.51-1.508v-9.256c0-1.4 0.79-2.202 2.17-2.202h2.414c0.27 0 0.57 0.024 0.89 0.070 0.308 0.046 0.616 0.1 0.918 0.164l0.012 0.002c1.248 0.294 2.23 1.012 2.922 2.14 0.248 0.414 0.44 0.858 0.576 1.322 0.138 0.47 0.206 0.946 0.206 1.418 0.002 0.468-0.064 0.936-0.196 1.386v0zM16.254 9.636c-0.224 0-0.418-0.086-0.56-0.248-0.136-0.158-0.206-0.358-0.206-0.596v-3.046h-0.688c-0.224-0.006-0.41-0.072-0.55-0.196-0.146-0.13-0.224-0.314-0.224-0.532 0-0.21 0.078-0.394 0.226-0.528 0.144-0.132 0.33-0.198 0.554-0.198h2.91c0.218 0.006 0.402 0.072 0.544 0.194 0.152 0.13 0.23 0.316 0.23 0.532s-0.080 0.402-0.228 0.534c-0.146 0.13-0.332 0.194-0.552 0.194h-0.684v3.052c-0.006 0.242-0.076 0.44-0.208 0.594-0.14 0.16-0.334 0.244-0.564 0.244v0zM15.73 18.57c0 0.786-0.14 1.53-0.418 2.212s-0.666 1.284-1.156 1.79c-0.49 0.508-1.078 0.91-1.744 1.198s-1.398 0.434-2.17 0.434-1.504-0.146-2.178-0.434c-0.67-0.286-1.264-0.684-1.766-1.182-0.504-0.5-0.904-1.096-1.188-1.772s-0.43-1.408-0.43-2.172v-6.084c0-0.62 0.174-1.13 0.516-1.518 0.354-0.4 0.85-0.612 1.432-0.612s1.080 0.214 1.442 0.62c0.35 0.396 0.526 0.904 0.526 1.51v6.084c0 0.248 0.042 0.478 0.124 0.682 0.086 0.208 0.198 0.382 0.34 0.53 0.144 0.148 0.31 0.264 0.51 0.352 0.196 0.088 0.404 0.13 0.636 0.13 0.268 0 0.512-0.062 0.748-0.186 0.236-0.126 0.424-0.292 0.572-0.504 0.1-0.148 0.174-0.298 0.22-0.448 0.032-0.104 0.068-0.296 0.068-0.628v-6.026c0.016-0.614 0.196-1.12 0.536-1.504 0.354-0.4 0.844-0.612 1.414-0.612 0.582 0 1.080 0.214 1.44 0.62 0.348 0.396 0.526 0.904 0.526 1.51v6.010zM4.68 5.080c0.006-0.242 0.076-0.44 0.21-0.59 0.14-0.158 0.334-0.24 0.562-0.24s0.424 0.084 0.564 0.246c0.134 0.154 0.202 0.352 0.202 0.59v3.048h1.232c0.22 0.006 0.402 0.072 0.542 0.196 0.148 0.13 0.224 0.314 0.224 0.53s-0.078 0.4-0.222 0.532c-0.142 0.128-0.328 0.194-0.55 0.194h-1.91c-0.542-0.012-0.854-0.328-0.854-0.866v-3.64zM8.416 5.080c0.006-0.242 0.076-0.44 0.21-0.59 0.14-0.158 0.334-0.24 0.562-0.24 0.23 0 0.424 0.084 0.564 0.246 0.134 0.154 0.202 0.352 0.202 0.59v3.708c0 0.242-0.068 0.444-0.202 0.598-0.14 0.16-0.334 0.246-0.564 0.246s-0.426-0.088-0.568-0.25c-0.136-0.158-0.204-0.358-0.204-0.596v-3.712zM10.332 7.972c0.038-0.086 0.088-0.164 0.152-0.232s0.138-0.122 0.222-0.162c0.090-0.042 0.186-0.066 0.286-0.066 0.132 0 0.258 0.028 0.374 0.082 0.106 0.050 0.224 0.134 0.362 0.256l0.004 0.004c0.124 0.116 0.236 0.198 0.336 0.248 0.092 0.044 0.184 0.066 0.276 0.066 0.112 0 0.196-0.030 0.264-0.092 0.064-0.060 0.094-0.126 0.094-0.216 0-0.066-0.020-0.116-0.066-0.16-0.046-0.040-0.14-0.104-0.344-0.164l-0.478-0.138c-0.392-0.114-0.682-0.24-0.888-0.386-0.176-0.12-0.312-0.282-0.406-0.484-0.090-0.196-0.136-0.42-0.136-0.664 0-0.24 0.048-0.466 0.144-0.668 0.094-0.202 0.228-0.378 0.398-0.524 0.168-0.144 0.37-0.256 0.604-0.336 0.23-0.078 0.482-0.116 0.75-0.116 0.224 0 0.442 0.026 0.644 0.080 0.206 0.054 0.388 0.13 0.546 0.224 0.166 0.1 0.298 0.222 0.394 0.36 0.106 0.15 0.158 0.316 0.158 0.492 0 0.196-0.066 0.368-0.2 0.512s-0.306 0.222-0.5 0.222c-0.138 0-0.27-0.044-0.392-0.13-0.022-0.014-0.050-0.034-0.1-0.076-0.040-0.034-0.094-0.076-0.162-0.13-0.156-0.126-0.3-0.188-0.432-0.188-0.1 0-0.18 0.026-0.248 0.082-0.070 0.058-0.080 0.106-0.080 0.146 0 0.068 0.022 0.096 0.046 0.114 0.028 0.022 0.116 0.078 0.376 0.14 0.22 0.056 0.41 0.11 0.568 0.162 0.162 0.054 0.308 0.112 0.438 0.174 0.29 0.14 0.518 0.336 0.672 0.584s0.232 0.536 0.232 0.858c0 0.268-0.048 0.514-0.144 0.736-0.098 0.222-0.238 0.416-0.418 0.576-0.176 0.16-0.388 0.284-0.628 0.37-0.236 0.088-0.5 0.13-0.786 0.13-0.256 0-0.504-0.034-0.738-0.104s-0.444-0.164-0.622-0.286c-0.184-0.124-0.334-0.272-0.446-0.436-0.12-0.18-0.182-0.37-0.182-0.57 0-0.102 0.020-0.2 0.056-0.29v0zM18.586 5.152c0.012-0.546 0.326-0.86 0.86-0.86h2.018c0.22 0.006 0.402 0.072 0.542 0.196 0.148 0.13 0.224 0.314 0.224 0.53s-0.078 0.4-0.222 0.532c-0.142 0.128-0.326 0.194-0.55 0.194h-1.334v0.47h1.022c0.204 0.006 0.374 0.066 0.504 0.178 0.142 0.122 0.218 0.294 0.218 0.498 0 0.202-0.074 0.374-0.212 0.5-0.134 0.122-0.308 0.182-0.516 0.182h-1.016v0.558h1.376c0.218 0.006 0.402 0.072 0.544 0.194 0.15 0.13 0.23 0.314 0.23 0.532 0 0.216-0.078 0.402-0.228 0.534-0.144 0.128-0.33 0.192-0.552 0.192h-2.052c-0.544-0.008-0.856-0.324-0.856-0.862v-3.568zM26.912 0h-21.824c-2.37 0-4.31 1.952-4.31 4.336v19.49c0 2.384 1.938 4.336 4.308 4.336h3.368l-2.31 3.838 5.148-3.838h15.62c2.37 0 4.308-1.952 4.308-4.336v-19.49c0.002-2.384-1.938-4.336-4.308-4.336v0z"></path>
<path d="M23.044 13.944c0 0.072-0.020 0.138-0.060 0.194-0.042 0.054-0.092 0.102-0.152 0.14s-0.13 0.056-0.206 0.056c-0.080 0-0.162-0.036-0.25-0.11l-0.24-0.2v3.054c0 0.076-0.014 0.136-0.040 0.18s-0.056 0.078-0.080 0.102c-0.028 0.024-0.064 0.048-0.112 0.076-0.048 0.024-0.104 0.036-0.172 0.036s-0.124-0.012-0.172-0.036c-0.046-0.026-0.084-0.052-0.112-0.076-0.024-0.024-0.052-0.058-0.080-0.102s-0.040-0.104-0.040-0.18v-3.072l-0.128 0.124c-0.054 0.050-0.1 0.090-0.14 0.12s-0.076 0.052-0.112 0.066c-0.034 0.012-0.076 0.018-0.126 0.018s-0.092-0.006-0.126-0.018c-0.034-0.012-0.068-0.032-0.1-0.056-0.036-0.026-0.068-0.056-0.096-0.088s-0.046-0.062-0.060-0.094-0.020-0.072-0.020-0.122v-0.024c0-0.066 0.038-0.134 0.112-0.202l0.216-0.208c0.218-0.206 0.436-0.408 0.656-0.602l0.328-0.29 0.328 0.29c0.22 0.194 0.44 0.396 0.656 0.602l0.204 0.194c0.084 0.080 0.124 0.156 0.124 0.228z"></path>
</symbol>
</defs>
</svg>
