<?xml version="1.0" encoding="UTF-8"?>
<svg width="32px" height="32px" viewBox="0 0 32 32" version="1.1" xmlns="http://www.w3.org/2000/svg" xmlns:xlink="http://www.w3.org/1999/xlink">
    <!-- Generator: Sketch 62 (91390) - https://sketch.com -->
    <title>Combined Shape</title>
    <desc>Created with Sketch.</desc>
    <g id="Page-1" stroke="none" stroke-width="1" fill="none" fill-rule="evenodd">
        <g id="location" fill="#E32117" fill-rule="nonzero">
            <path d="M26.912,0 C29.282,0 31.222,1.952 31.2200015,4.336 L31.2200015,4.336 L31.2200015,23.826 C31.2200015,26.21 29.282,28.162 26.912,28.162 L26.912,28.162 L11.292,28.162 L6.144,32 L8.454,28.162 L5.086,28.162 C2.716,28.162 0.778,26.21 0.778,23.826 L0.778,23.826 L0.778,4.336 C0.778,1.952 2.718,0 5.088,0 L5.088,0 Z M13.764,10.43 C13.194,10.43 12.704,10.642 12.35,11.042 C12.01,11.426 11.83,11.932 11.814,12.546 L11.814,12.546 L11.814,18.572 C11.814,18.904 11.778,19.096 11.746,19.2 C11.7,19.35 11.626,19.5 11.526,19.648 C11.378,19.86 11.19,20.026 10.954,20.152 C10.718,20.276 10.474,20.338 10.206,20.338 C9.974,20.338 9.766,20.296 9.57,20.208 C9.37,20.12 9.204,20.004 9.06,19.856 C8.918,19.708 8.806,19.534 8.72,19.326 C8.638,19.122 8.596,18.892 8.596,18.644 L8.596,18.644 L8.596,12.56 C8.596,11.954 8.42,11.446 8.07,11.05 C7.708,10.644 7.21,10.43 6.628,10.43 C6.046,10.43 5.55,10.642 5.196,11.042 C4.854,11.43 4.68,11.94 4.68,12.56 L4.68,12.56 L4.68,18.644 C4.68,19.408 4.826,20.14 5.11,20.816 C5.394,21.492 5.794,22.088 6.298,22.588 C6.8,23.086 7.394,23.484 8.064,23.77 C8.738,24.058 9.47,24.204 10.242,24.204 C11.014,24.204 11.746,24.058 12.412,23.77 C13.078,23.482 13.666,23.08 14.156,22.572 C14.646,22.066 15.034,21.464 15.312,20.782 C15.59,20.1 15.73,19.356 15.73,18.57 L15.73,18.57 L15.73,12.56 C15.73,11.954 15.552,11.446 15.204,11.05 C14.844,10.644 14.346,10.43 13.764,10.43 Z M21.556,10.544 L19.142,10.544 C17.762,10.544 16.972,11.346 16.972,12.746 L16.972,12.746 L16.972,22.002 C16.972,22.604 17.144,23.112 17.482,23.51 C17.836,23.928 18.334,24.15 18.922,24.15 C19.508,24.15 20.004,23.932 20.358,23.524 C20.696,23.136 20.874,22.628 20.89,22.016 L20.89,22.016 L20.89,20.662 L21.706,20.662 C22.298,20.662 22.764,20.628 23.132,20.56 C23.51,20.49 23.89,20.362 24.266,20.18 C24.694,19.972 25.086,19.704 25.43,19.384 C25.77,19.068 26.068,18.71 26.314,18.318 C26.562,17.924 26.754,17.496 26.884,17.046 L26.884,17.046 L26.884,17.046 L26.9552644,16.773984 C27.0396818,16.4088 27.0816088,16.0344 27.0800441,15.66 C27.0800441,15.188 27.012,14.712 26.874,14.242 C26.738,13.778 26.546,13.334 26.298,12.92 C25.606,11.792 24.624,11.074 23.376,10.78 L23.376,10.78 L23.364,10.778 C23.062,10.714 22.754,10.66 22.446,10.614 C22.126,10.568 21.826,10.544 21.556,10.544 L21.556,10.544 Z M21.732,12.63 L22.06,12.92 C22.28,13.114 22.5,13.316 22.716,13.522 L22.92,13.716 C22.983,13.776 23.02125,13.83375 23.0364375,13.88925 L23.044,13.944 C23.044,14.016 23.024,14.082 22.984,14.138 C22.942,14.192 22.892,14.24 22.832,14.278 C22.772,14.316 22.702,14.334 22.626,14.334 C22.546,14.334 22.464,14.298 22.376,14.224 L22.136,14.024 L22.136,17.078 C22.136,17.154 22.122,17.214 22.096,17.258 C22.07,17.302 22.04,17.336 22.016,17.36 C21.988,17.384 21.952,17.408 21.904,17.436 C21.856,17.46 21.8,17.472 21.732,17.472 C21.664,17.472 21.608,17.46 21.56,17.436 C21.514,17.41 21.476,17.384 21.448,17.36 C21.424,17.336 21.396,17.302 21.368,17.258 C21.34,17.214 21.328,17.154 21.328,17.078 L21.328,14.006 L21.2,14.13 C21.146,14.18 21.1,14.22 21.06,14.25 C21.02,14.28 20.984,14.302 20.948,14.316 C20.914,14.328 20.872,14.334 20.822,14.334 C20.772,14.334 20.73,14.328 20.696,14.316 C20.662,14.304 20.628,14.284 20.596,14.26 C20.56,14.234 20.528,14.204 20.5,14.172 C20.472,14.14 20.454,14.11 20.44,14.078 C20.426,14.046 20.42,14.006 20.42,13.956 L20.42,13.932 C20.42,13.866 20.458,13.798 20.532,13.73 L20.748,13.522 C20.966,13.316 21.184,13.114 21.404,12.92 L21.732,12.63 Z M23.21,4.248 C22.956,4.248 22.744,4.364 22.598,4.582 C22.544,4.66 22.506,4.74 22.488,4.824 C22.474,4.896 22.466,4.99 22.466,5.114 L22.466,5.114 L22.466,8.794 C22.466,9.032 22.536,9.232 22.672,9.388 C22.814,9.55 23.01,9.636 23.24,9.636 C23.47,9.636 23.664,9.55 23.804,9.39 C23.938,9.236 24.006,9.034 24.006,8.792 L24.006,8.792 L24.006,7.18 L25.584,9.222 C25.708,9.388 25.808,9.492 25.902,9.554 C26.008,9.622 26.134,9.658 26.278,9.658 C26.414,9.658 26.544,9.626 26.666,9.56 C26.786,9.496 26.884,9.408 26.956,9.296 C27.014,9.216 27.048,9.13 27.064,9.036 C27.076,8.962 27.082,8.854 27.082,8.706 L27.082,8.706 L27.08,8.706 L27.08,5.086 C27.08,4.848 27.012,4.648 26.874,4.494 C26.732,4.334 26.534,4.25 26.308,4.25 C26.082,4.25 25.892,4.332 25.752,4.49 C25.618,4.64 25.548,4.838 25.542,5.08 L25.542,5.08 L25.542,6.734 L23.902,4.652 C23.786,4.502 23.682,4.4 23.582,4.342 C23.474,4.28 23.35,4.248 23.21,4.248 Z M12.28,4.22 C12.012,4.22 11.76,4.258 11.53,4.336 C11.296,4.416 11.094,4.528 10.926,4.672 C10.756,4.818 10.622,4.994 10.528,5.196 C10.432,5.398 10.384,5.624 10.384,5.864 C10.384,6.108 10.43,6.332 10.52,6.528 C10.614,6.73 10.75,6.892 10.926,7.012 C11.132,7.158 11.422,7.284 11.814,7.398 L11.814,7.398 L12.292,7.536 C12.496,7.596 12.59,7.66 12.636,7.7 C12.682,7.744 12.702,7.794 12.702,7.86 C12.702,7.95 12.672,8.016 12.608,8.076 C12.54,8.138 12.456,8.168 12.344,8.168 C12.252,8.168 12.16,8.146 12.068,8.102 C11.968,8.052 11.856,7.97 11.732,7.854 L11.732,7.854 C11.59,7.728 11.472,7.644 11.366,7.594 C11.25,7.54 11.124,7.512 10.992,7.512 C10.892,7.512 10.796,7.536 10.706,7.578 C10.622,7.618 10.548,7.672 10.484,7.74 C10.42,7.808 10.37,7.886 10.332,7.972 L10.332,7.972 L10.332,7.972 L10.3014815,8.06451852 C10.2848889,8.12777778 10.276,8.194 10.276,8.262 C10.276,8.462 10.338,8.652 10.458,8.832 C10.57,8.996 10.72,9.144 10.904,9.268 C11.082,9.39 11.292,9.484 11.526,9.554 C11.76,9.624 12.008,9.658 12.264,9.658 C12.55,9.658 12.814,9.616 13.05,9.528 C13.29,9.442 13.502,9.318 13.678,9.158 C13.858,8.998 13.998,8.804 14.096,8.582 C14.192,8.36 14.24,8.114 14.24,7.846 C14.24,7.524 14.162,7.236 14.008,6.988 C13.854,6.74 13.626,6.544 13.336,6.404 C13.206,6.342 13.06,6.284 12.898,6.23 C12.74,6.178 12.55,6.124 12.33,6.068 C12.07,6.006 11.982,5.95 11.954,5.928 C11.93,5.91 11.908,5.882 11.908,5.814 C11.908,5.774 11.918,5.726 11.988,5.668 C12.056,5.612 12.136,5.586 12.236,5.586 C12.368,5.586 12.512,5.648 12.668,5.774 C12.736,5.828 12.79,5.87 12.83,5.904 C12.88,5.946 12.908,5.966 12.93,5.98 C13.052,6.066 13.184,6.11 13.322,6.11 C13.516,6.11 13.688,6.032 13.822,5.888 C13.956,5.744 14.022,5.572 14.022,5.376 C14.022,5.2 13.97,5.034 13.864,4.884 C13.768,4.746 13.636,4.624 13.47,4.524 C13.312,4.43 13.13,4.354 12.924,4.3 C12.722,4.246 12.504,4.22 12.28,4.22 Z M9.188,4.25 C8.96,4.25 8.766,4.332 8.626,4.49 C8.492,4.64 8.422,4.838 8.416,5.08 L8.416,5.08 L8.416,8.792 C8.416,9.03 8.484,9.23 8.62,9.388 C8.762,9.55 8.958,9.638 9.188,9.638 C9.418,9.638 9.612,9.552 9.752,9.392 C9.886,9.238 9.954,9.036 9.954,8.794 L9.954,8.794 L9.954,5.086 C9.954,4.848 9.886,4.65 9.752,4.496 C9.612,4.334 9.418,4.25 9.188,4.25 Z M17.716,4.292 L14.806,4.292 C14.582,4.292 14.396,4.358 14.252,4.49 C14.104,4.624 14.026,4.808 14.026,5.018 C14.026,5.236 14.104,5.42 14.25,5.55 C14.39,5.674 14.576,5.74 14.8,5.746 L14.8,5.746 L15.488,5.746 L15.488,8.792 C15.488,9.03 15.558,9.23 15.694,9.388 C15.836,9.55 16.03,9.636 16.254,9.636 C16.484,9.636 16.678,9.552 16.818,9.392 C16.95,9.238 17.02,9.04 17.026,8.798 L17.026,8.798 L17.026,5.746 L17.71,5.746 C17.93,5.746 18.116,5.682 18.262,5.552 C18.41,5.42 18.49,5.234 18.49,5.018 C18.49,4.802 18.412,4.616 18.26,4.486 C18.118,4.364 17.934,4.298 17.716,4.292 L17.716,4.292 Z M5.452,4.25 C5.224,4.25 5.03,4.332 4.89,4.49 C4.756,4.64 4.686,4.838 4.68,5.08 L4.68,5.08 L4.68,8.72 C4.68,9.258 4.992,9.574 5.534,9.586 L5.534,9.586 L7.444,9.586 C7.666,9.586 7.852,9.52 7.994,9.392 C8.138,9.26 8.216,9.076 8.216,8.86 C8.216,8.644 8.14,8.46 7.992,8.33 C7.852,8.206 7.67,8.14 7.45,8.134 L7.45,8.134 L6.218,8.134 L6.218,5.086 C6.218,4.848 6.15,4.65 6.016,4.496 C5.876,4.334 5.68,4.25 5.452,4.25 Z M21.464,4.292 L19.446,4.292 C18.912,4.292 18.598,4.606 18.586,5.152 L18.586,5.152 L18.586,8.72 C18.586,9.258 18.898,9.574 19.442,9.582 L19.442,9.582 L21.494,9.582 C21.716,9.582 21.902,9.518 22.046,9.39 C22.196,9.258 22.274,9.072 22.274,8.856 C22.274,8.638 22.194,8.454 22.044,8.324 C21.902,8.202 21.718,8.136 21.5,8.13 L21.5,8.13 L20.124,8.13 L20.124,7.572 L21.14,7.572 C21.348,7.572 21.522,7.512 21.656,7.39 C21.794,7.264 21.868,7.092 21.868,6.89 C21.868,6.686 21.792,6.514 21.65,6.392 C21.52,6.28 21.35,6.22 21.146,6.214 L21.146,6.214 L20.124,6.214 L20.124,5.744 L21.458,5.744 C21.682,5.744 21.866,5.678 22.008,5.55 C22.152,5.418 22.23,5.234 22.23,5.018 C22.23,4.802 22.154,4.618 22.006,4.488 C21.866,4.364 21.684,4.298 21.464,4.292 L21.464,4.292 Z" id="Combined-Shape"></path>
        </g>
    </g>
</svg>